HIERARCHY
ROOT Hips
{
  OFFSET 5.72205e-005 65.662 3.42586
  CHANNELS 6 Xposition Yposition Zposition Zrotation Xrotation Yrotation
  JOINT Chest
  {
    OFFSET 0 8.7983 -4.7612
    CHANNELS 6 Xposition Yposition Zposition Zrotation Xrotation Yrotation
    JOINT Chest2
    {
      OFFSET 0 8.0291 0.4195
      CHANNELS 6 Xposition Yposition Zposition Zrotation Xrotation Yrotation
      JOINT Chest3
      {
        OFFSET 0 9.9351 -2.2114
        CHANNELS 6 Xposition Yposition Zposition Zrotation Xrotation Yrotation
        JOINT Neck
        {
          OFFSET 0 22.3885 -0.4656
          CHANNELS 6 Xposition Yposition Zposition Zrotation Xrotation Yrotation
          JOINT Head
          {
            OFFSET -0.0001 12.643 3.4389
            CHANNELS 6 Xposition Yposition Zposition Zrotation Xrotation Yrotation
            End Site
            {
              OFFSET 0.0001 17.6655 0.5274
            }
          }
        }
        JOINT LeftCollar
        {
          OFFSET 2.2603 21.606 7.4023
          CHANNELS 6 Xposition Yposition Zposition Zrotation Xrotation Yrotation
          JOINT LeftShoulder
          {
            OFFSET 13.5163 -1.1332 -5.0146
            CHANNELS 6 Xposition Yposition Zposition Zrotation Xrotation Yrotation
            JOINT LeftElbow
            {
              OFFSET -0.0995 -28.05 -0.2431
              CHANNELS 6 Xposition Yposition Zposition Zrotation Xrotation Yrotation
              JOINT LeftWrist
              {
                OFFSET 0.0679 -23.3996 -0.1402
                CHANNELS 6 Xposition Yposition Zposition Zrotation Xrotation Yrotation
                JOINT LeftFinger1
                {
                  OFFSET 0.7932 -9.069 2.5189
                  CHANNELS 6 Xposition Yposition Zposition Zrotation Xrotation Yrotation
                  JOINT LeftFinger11
                  {
                    OFFSET -0.8272 -3.3923 0.5977
                    CHANNELS 6 Xposition Yposition Zposition Zrotation Xrotation Yrotation
                    JOINT LeftFinger12
                    {
                      OFFSET -0.5649 -2.3158 0.4082
                      CHANNELS 6 Xposition Yposition Zposition Zrotation Xrotation Yrotation
                      End Site
                      {
                        OFFSET -0.4919 -1.6479 0.2673
                      }
                    }
                  }
                }
                JOINT LeftFinger2
                {
                  OFFSET 0.9159 -9.2044 0.2193
                  CHANNELS 6 Xposition Yposition Zposition Zrotation Xrotation Yrotation
                  JOINT LeftFinger21
                  {
                    OFFSET 0.0117 -4.1944 -0.0248
                    CHANNELS 6 Xposition Yposition Zposition Zrotation Xrotation Yrotation
                    JOINT LeftFinger22
                    {
                      OFFSET 0.0071 -2.3249 -0.0142
                      CHANNELS 6 Xposition Yposition Zposition Zrotation Xrotation Yrotation
                      End Site
                      {
                        OFFSET -0.1475 -2.0882 0.0028
                      }
                    }
                  }
                }
                JOINT LeftFinger3
                {
                  OFFSET 0.6113 -8.7231 -2.0637
                  CHANNELS 6 Xposition Yposition Zposition Zrotation Xrotation Yrotation
                  JOINT LeftFinger31
                  {
                    OFFSET -0.1927 -3.8059 -0.2383
                    CHANNELS 6 Xposition Yposition Zposition Zrotation Xrotation Yrotation
                    JOINT LeftFinger32
                    {
                      OFFSET -0.1091 -2.1688 -0.1362
                      CHANNELS 6 Xposition Yposition Zposition Zrotation Xrotation Yrotation
                      End Site
                      {
                        OFFSET -0.2358 -1.9176 -0.0906
                      }
                    }
                  }
                }
                JOINT LeftFinger4
                {
                  OFFSET -0.6151 -8.0947 -3.5641
                  CHANNELS 6 Xposition Yposition Zposition Zrotation Xrotation Yrotation
                  JOINT LeftFinger41
                  {
                    OFFSET -0.4882 -2.341 -0.6462
                    CHANNELS 6 Xposition Yposition Zposition Zrotation Xrotation Yrotation
                    JOINT LeftFinger42
                    {
                      OFFSET -0.3575 -1.7167 -0.4742
                      CHANNELS 6 Xposition Yposition Zposition Zrotation Xrotation Yrotation
                      End Site
                      {
                        OFFSET -0.4187 -1.5237 -0.3496
                      }
                    }
                  }
                }
                JOINT LeftFinger0
                {
                  OFFSET -1.42 -1.8761 1.4223
                  CHANNELS 6 Xposition Yposition Zposition Zrotation Xrotation Yrotation
                  JOINT LeftFinger01
                  {
                    OFFSET -1.1471 -3.4929 2.6334
                    CHANNELS 6 Xposition Yposition Zposition Zrotation Xrotation Yrotation
                    JOINT LeftFinger02
                    {
                      OFFSET -0.823 -2.3 1.6571
                      CHANNELS 6 Xposition Yposition Zposition Zrotation Xrotation Yrotation
                      End Site
                      {
                        OFFSET -0.5822 -1.6914 1.1582
                      }
                    }
                  }
                }
              }
            }
          }
        }
        JOINT RightCollar
        {
          OFFSET -2.2603 21.606 7.4023
          CHANNELS 6 Xposition Yposition Zposition Zrotation Xrotation Yrotation
          JOINT RightShoulder
          {
            OFFSET -13.5187 -1.1334 -5.0155
            CHANNELS 6 Xposition Yposition Zposition Zrotation Xrotation Yrotation
            JOINT RightElbow
            {
              OFFSET 0.0994 -28.0499 -0.2431
              CHANNELS 6 Xposition Yposition Zposition Zrotation Xrotation Yrotation
              JOINT RightWrist
              {
                OFFSET -0.0679 -23.3996 -0.1402
                CHANNELS 6 Xposition Yposition Zposition Zrotation Xrotation Yrotation
                JOINT RightFinger1
                {
                  OFFSET -0.7932 -9.0691 2.5189
                  CHANNELS 6 Xposition Yposition Zposition Zrotation Xrotation Yrotation
                  JOINT RightFinger11
                  {
                    OFFSET 0.8272 -3.3923 0.5977
                    CHANNELS 6 Xposition Yposition Zposition Zrotation Xrotation Yrotation
                    JOINT RightFinger12
                    {
                      OFFSET 0.565 -2.3158 0.4082
                      CHANNELS 6 Xposition Yposition Zposition Zrotation Xrotation Yrotation
                      End Site
                      {
                        OFFSET 0.4919 -1.6479 0.2673
                      }
                    }
                  }
                }
                JOINT RightFinger2
                {
                  OFFSET -0.916 -9.2044 0.2193
                  CHANNELS 6 Xposition Yposition Zposition Zrotation Xrotation Yrotation
                  JOINT RightFinger21
                  {
                    OFFSET -0.0117 -4.1944 -0.0248
                    CHANNELS 6 Xposition Yposition Zposition Zrotation Xrotation Yrotation
                    JOINT RightFinger22
                    {
                      OFFSET -0.0071 -2.3249 -0.0142
                      CHANNELS 6 Xposition Yposition Zposition Zrotation Xrotation Yrotation
                      End Site
                      {
                        OFFSET 0.1475 -2.0882 0.0028
                      }
                    }
                  }
                }
                JOINT RightFinger3
                {
                  OFFSET -0.6113 -8.7231 -2.0637
                  CHANNELS 6 Xposition Yposition Zposition Zrotation Xrotation Yrotation
                  JOINT RightFinger31
                  {
                    OFFSET 0.1927 -3.8059 -0.2383
                    CHANNELS 6 Xposition Yposition Zposition Zrotation Xrotation Yrotation
                    JOINT RightFinger32
                    {
                      OFFSET 0.1091 -2.1688 -0.1362
                      CHANNELS 6 Xposition Yposition Zposition Zrotation Xrotation Yrotation
                      End Site
                      {
                        OFFSET 0.2358 -1.9176 -0.0906
                      }
                    }
                  }
                }
                JOINT RightFinger4
                {
                  OFFSET 0.6151 -8.0947 -3.564
                  CHANNELS 6 Xposition Yposition Zposition Zrotation Xrotation Yrotation
                  JOINT RightFinger41
                  {
                    OFFSET 0.4882 -2.341 -0.6462
                    CHANNELS 6 Xposition Yposition Zposition Zrotation Xrotation Yrotation
                    JOINT RightFinger42
                    {
                      OFFSET 0.3574 -1.7166 -0.4742
                      CHANNELS 6 Xposition Yposition Zposition Zrotation Xrotation Yrotation
                      End Site
                      {
                        OFFSET 0.4187 -1.5237 -0.3496
                      }
                    }
                  }
                }
                JOINT RightFinger0
                {
                  OFFSET 1.4199 -1.8761 1.4221
                  CHANNELS 6 Xposition Yposition Zposition Zrotation Xrotation Yrotation
                  JOINT RightFinger01
                  {
                    OFFSET 1.1472 -3.4929 2.6336
                    CHANNELS 6 Xposition Yposition Zposition Zrotation Xrotation Yrotation
                    JOINT RightFinger02
                    {
                      OFFSET 0.8229 -2.3 1.6571
                      CHANNELS 6 Xposition Yposition Zposition Zrotation Xrotation Yrotation
                      End Site
                      {
                        OFFSET 0.5822 -1.6914 1.1582
                      }
                    }
                  }
                }
              }
            }
          }
        }
      }
    }
  }
  JOINT RightHip
  {
    OFFSET -9.412 3.9771 -0.7758
    CHANNELS 6 Xposition Yposition Zposition Zrotation Xrotation Yrotation
    JOINT RightKnee
    {
      OFFSET -0.7531 -40.938 0
      CHANNELS 6 Xposition Yposition Zposition Zrotation Xrotation Yrotation
      JOINT RightAnkle
      {
        OFFSET 0 -40.1986 0
        CHANNELS 6 Xposition Yposition Zposition Zrotation Xrotation Yrotation
        JOINT RightToe
        {
          OFFSET 0 -4.4182 9.239
          CHANNELS 6 Xposition Yposition Zposition Zrotation Xrotation Yrotation
          End Site
          {
            OFFSET 0 0 6.1981
          }
        }
      }
    }
  }
  JOINT LeftHip
  {
    OFFSET 9.4119 3.9773 -0.7758
    CHANNELS 6 Xposition Yposition Zposition Zrotation Xrotation Yrotation
    JOINT LeftKnee
    {
      OFFSET 0.7532 -40.9383 0
      CHANNELS 6 Xposition Yposition Zposition Zrotation Xrotation Yrotation
      JOINT LeftAnkle
      {
        OFFSET 0 -40.1986 0
        CHANNELS 6 Xposition Yposition Zposition Zrotation Xrotation Yrotation
        JOINT LeftToe
        {
          OFFSET 0 -4.4182 9.239
          CHANNELS 6 Xposition Yposition Zposition Zrotation Xrotation Yrotation
          End Site
          {
            OFFSET 0 0 6.1981
          }
        }
      }
    }
  }
}
MOTION
Frames:	4
Frame Time:	0.0333333
5.72205e-005 65.662 3.42586 0 0 -0 0 8.7983 -4.7612 0 0 -0 0 8.0291 0.4195 0 0 -0 0 9.9351 -2.2114 0 0 -0 0 22.3885 -0.4656 0 0 -0 -0.0001 12.643 3.4389 0 0 -0 2.2603 21.606 7.4023 0 0 -12.5014 13.5163 -1.1332 -5.0146 88.1196 14.2451 10.6914 -0.0995 -28.05 -0.2431 -0.00160068 -0.00239207 0.000740045 0.0679 -23.3996 -0.1402 -8.4365e-005 7.00714e-005 -9.52055e-007 0.7932 -9.069 2.5189 9.93923e-017 -1.98785e-016 -1.59028e-015 -0.8272 -3.3923 0.5977 9.93923e-017 -5.96354e-016 -1.59028e-015 -0.5649 -2.3158 0.4082 -9.93923e-017 -5.96354e-016 -1.59028e-015 0.9159 -9.2044 0.2193 9.93923e-017 -1.98785e-016 -1.59028e-015 0.0117 -4.1944 -0.0248 -0.0128176 0.00232552 8.52707e-005 0.0071 -2.3249 -0.0142 9.93923e-017 5.96354e-016 -0 0.6113 -8.7231 -2.0637 9.93923e-017 -1.98785e-016 -1.59028e-015 -0.1927 -3.8059 -0.2383 -0.0160551 0.00299681 0.000857156 -0.1091 -2.1688 -0.1362 -2.48481e-016 0 3.18055e-015 -0.6151 -8.0947 -3.5641 9.93923e-017 -1.98785e-016 -1.59028e-015 -0.4882 -2.341 -0.6462 -0.0125865 0.0031206 0.00282719 -0.3575 -1.7167 -0.4742 0 1.98785e-016 -0 -1.42 -1.8761 1.4223 9.93923e-017 -1.98785e-016 -1.59028e-015 -1.1471 -3.4929 2.6334 9.93923e-017 -5.96354e-016 -1.59028e-015 -0.823 -2.3 1.6571 -9.93923e-017 -5.96354e-016 -1.59028e-015 -2.2603 21.606 7.4023 -0.865644 0.16582 7.03859 -13.5187 -1.1334 -5.0155 -88.0329 10.2057 -10.5567 0.0994 -28.0499 -0.2431 0.0015593 -0.00248883 -0.000788628 -0.0679 -23.3996 -0.1402 7.87605e-005 4.10553e-005 1.24965e-005 -0.7932 -9.0691 2.5189 -3.97569e-016 -7.95139e-016 3.18055e-015 0.8272 -3.3923 0.5977 -1.98785e-016 -3.97569e-016 3.18055e-015 0.565 -2.3158 0.4082 -1.98785e-016 0 3.18055e-015 -0.916 -9.2044 0.2193 -3.97569e-016 -7.95139e-016 3.18055e-015 -0.0117 -4.1944 -0.0248 0.0129473 0.00231697 -8.70038e-005 -0.0071 -2.3249 -0.0142 9.93923e-017 -7.95139e-016 1.59028e-015 -0.6113 -8.7231 -2.0637 -3.97569e-016 -7.95139e-016 3.18055e-015 0.1927 -3.8059 -0.2383 0.0163314 0.00303369 -0.000872333 0.1091 -2.1688 -0.1362 3.97569e-016 7.95139e-016 -3.18055e-015 0.6151 -8.0947 -3.564 -3.97569e-016 -7.95139e-016 3.18055e-015 0.4882 -2.341 -0.6462 0.0145763 0.00367772 -0.00326275 0.3574 -1.7166 -0.4742 9.93923e-017 -3.97569e-016 -0 1.4199 -1.8761 1.4221 -3.97569e-016 -7.95139e-016 3.18055e-015 1.1472 -3.4929 2.6336 -1.98785e-016 -3.97569e-016 3.18055e-015 0.8229 -2.3 1.6571 -1.98785e-016 0 3.18055e-015 -9.412 3.9771 -0.7758 3.42482 1.32465 -0.0626183 -0.7531 -40.938 0 0.000117508 0.717283 0.000978199 0 -40.1986 0 -3.4257 -2.04197 -0.0604716 8.88178e-016 -4.4182 9.239 6.47761e-025 0 -0 9.4119 3.9773 -0.7758 -3.42483 1.34017 0.0627307 0.7532 -40.9383 -2.22045e-016 -0.000193936 0.682302 -0.0013703 -8.88179e-016 -40.1986 0 3.42574 -2.02253 0.0595886 -8.88178e-016 -4.4182 9.239 -8.45714e-024 0 -7.40531e-025 
-1.95189e-005 16.1587 -43.0065 -2.98476e-008 -66.6681 -2.21996e-008 0 8.7983 -4.7612 -0.0467618 6.36214 -0.0806384 0 8.0291 0.4195 -0.085245 12.7243 -0.157486 0 9.9351 -2.2114 -0.0852453 12.7244 -0.157487 0 22.3885 -0.4656 -1.80879e-007 13.3608 -4.05028e-007 -0.0001 12.643 3.4389 1.59062e-008 6.70105 -1.72546e-007 2.2603 21.606 7.4023 0.461494 0.249726 -6.16633 13.5163 -1.1332 -5.0146 25.463 30.1444 22.8795 -0.0995 -28.05 -0.2431 -13.9764 -53.7 -33.6985 0.0679 -23.3996 -0.1402 -4.35613 1.41053 -17.5541 0.7932 -9.069 2.5189 2.38542e-015 -6.36111e-015 -1.09332e-015 -0.8272 -3.3923 0.5977 2.98177e-015 -1.59028e-014 -5.96354e-016 -0.5649 -2.3158 0.4082 -5.56597e-015 -3.18055e-015 3.97569e-015 0.9159 -9.2044 0.2193 2.38542e-015 -6.36111e-015 -1.09332e-015 0.0117 -4.1944 -0.0248 -0.0128497 0.00232824 8.44964e-005 0.0071 -2.3249 -0.0142 2.38542e-015 -6.36111e-015 -4.37326e-015 0.6113 -8.7231 -2.0637 2.38542e-015 -6.36111e-015 -1.09332e-015 -0.1927 -3.8059 -0.2383 -0.0160733 0.00298667 0.000850658 -0.1091 -2.1688 -0.1362 -3.57812e-015 0 -4.57205e-015 -0.6151 -8.0947 -3.5641 2.38542e-015 -6.36111e-015 -1.09332e-015 -0.4882 -2.341 -0.6462 -0.012557 0.00311353 0.0028185 -0.3575 -1.7167 -0.4742 5.1684e-015 1.90833e-014 3.47873e-015 -1.42 -1.8761 1.4223 2.38542e-015 -6.36111e-015 -1.09332e-015 -1.1471 -3.4929 2.6334 2.98177e-015 -1.59028e-014 -5.96354e-016 -0.823 -2.3 1.6571 -5.56597e-015 -3.18055e-015 3.97569e-015 -2.2603 21.606 7.4023 -1.29677 0.506436 0.719368 -13.5187 -1.1334 -5.0155 -27.9441 28.9505 -17.0264 0.0994 -28.0499 -0.2431 12.6637 -54.4334 32.0476 -0.0679 -23.3996 -0.1402 4.00742 1.05203 17.664 -0.7932 -9.06911 2.5189 -4.96962e-016 1.69053e-006 2.59662e-015 0.8272 -3.3923 0.5977 -3.27995e-015 -3.18055e-015 2.75814e-015 0.565 -2.3158 0.4082 2.18663e-015 9.54166e-015 2.08724e-015 -0.916 -9.2044 0.2193 -4.96962e-016 1.69053e-006 2.59662e-015 -0.0117 -4.1944 -0.0248 0.0129287 0.00230067 -7.61055e-005 -0.0071 -2.3249 -0.0142 1.83876e-015 6.36111e-015 -5.46658e-015 -0.6113 -8.7231 -2.0637 -4.96962e-016 1.69053e-006 2.59662e-015 0.1927 -3.8059 -0.2383 0.0162926 0.00302226 -0.000863627 0.1091 -2.1688 -0.1362 -2.01269e-015 6.36111e-015 -5.49143e-015 0.6151 -8.0947 -3.564 -4.96962e-016 1.69053e-006 2.59662e-015 0.4882 -2.341 -0.6462 0.0146208 0.00368745 -0.00327314 0.3574 -1.7166 -0.4742 1.32243e-006 1.69078e-006 1.08022e-006 1.4199 -1.8761 1.4221 -4.96962e-016 1.69053e-006 2.59662e-015 1.1472 -3.4929 2.6336 -3.27995e-015 -3.18055e-015 2.75814e-015 0.8229 -2.3 1.6571 2.18663e-015 9.54166e-015 2.08724e-015 -9.412 3.9771 -0.7758 -30.3522 -29.0158 -5.58456 -0.7531 -40.938 0 7.81791 78.1898 -9.74167 7.10543e-015 -40.1986 -3.55271e-015 -6.20165 7.52317 -1.00602 3.55271e-015 -4.4182 9.239 -3.18055e-015 -1.59028e-015 6.36111e-015 9.4119 3.9773 -0.7758 30.3315 -29.017 5.55637 0.7532 -40.9383 3.55271e-015 -7.82478 78.1901 9.74483 0 -40.1986 -3.55271e-015 6.18019 7.52579 1.01786 0 -4.4182 9.239 2.46066e-006 -2.23469e-006 -5.75288e-007 
0.000115945 -5.01984 -67.8393 -180 -83.3313 -180 0 8.7983 -4.7612 -0.0670394 9.11551 -0.11652 0 8.0291 0.4195 -0.117295 18.2312 -0.226466 0 9.9351 -2.2114 -0.117296 18.2312 -0.226467 0 22.3885 -0.4656 4.33107e-007 19.2311 1.42506e-006 -0.0001 12.643 3.4389 -8.45789e-008 9.54106 2.4955e-007 2.2603 21.606 7.4023 0.623713 0.716364 -3.11439 13.5163 -1.1332 -5.0146 -3.15134 34.5282 25.8018 -0.0995 -28.05 -0.2431 -44.925 -75.523 -73.8951 0.0679 -23.3996 -0.1402 -6.45872 2.05564 -25.6224 0.7932 -9.069 2.5189 -1.61383e-031 1.59028e-015 5.81445e-015 -0.8272 -3.3923 0.5977 -7.95139e-016 7.95139e-016 2.73329e-015 -0.5649 -2.3158 0.4082 -7.95139e-016 -7.95139e-016 -6.75868e-015 0.9159 -9.2044 0.2193 -1.61383e-031 1.59028e-015 5.81445e-015 0.0117 -4.1944 -0.0248 -0.0128014 0.00233085 8.83369e-005 0.0071 -2.3249 -0.0142 -1.73641e-006 -1.66435e-007 -2.2661e-006 0.6113 -8.7231 -2.0637 -1.61383e-031 1.59028e-015 5.81445e-015 -0.1927 -3.8059 -0.2383 -0.0160422 0.00299411 0.000863612 -0.1091 -2.1688 -0.1362 -1.69887e-006 -2.56055e-006 -1.21337e-007 -0.6151 -8.0947 -3.5641 -1.61383e-031 1.59028e-015 5.81445e-015 -0.4882 -2.341 -0.6462 -0.0126227 0.00312584 0.00283027 -0.3575 -1.7167 -0.4742 -3.18055e-015 0 2.48481e-015 -1.42 -1.8761 1.4223 -1.61383e-031 1.59028e-015 5.81445e-015 -1.1471 -3.4929 2.6334 -7.95139e-016 7.95139e-016 2.73329e-015 -0.823 -2.3 1.6571 -7.95139e-016 -7.95139e-016 -6.75868e-015 -2.2603 21.606 7.4023 -1.48611 1.03456 -2.39019 -13.5187 -1.1334 -5.0155 -0.385899 35.9065 -18.7125 0.0994 -28.0499 -0.2431 42.7109 -77.085 71.0696 -0.0679 -23.3996 -0.1402 6.02801 1.47294 25.8448 -0.7932 -9.0691 2.5189 -1.71639e-006 2.4709e-007 -2.36857e-006 0.8272 -3.3923 0.5977 -2.38542e-015 -7.95139e-016 -2.88238e-015 0.565 -2.3158 0.4082 -1.59028e-015 -1.59028e-015 -6.55989e-015 -0.916 -9.2044 0.2193 -1.71639e-006 2.4709e-007 -2.36857e-006 -0.0117 -4.1944 -0.0248 0.0129544 0.00230291 -8.47499e-005 -0.0071 -2.3249 -0.0142 7.95139e-016 3.18055e-015 -2.42517e-014 -0.6113 -8.7231 -2.0637 -1.71639e-006 2.4709e-007 -2.36857e-006 0.1927 -3.8059 -0.2383 0.0163526 0.00304168 -0.000882423 0.1091 -2.1688 -0.1362 0 0 -3.77691e-015 0.6151 -8.0947 -3.564 -1.71639e-006 2.4709e-007 -2.36857e-006 0.4882 -2.341 -0.6462 0.0146211 0.00368526 -0.00327044 0.3574 -1.7166 -0.4742 -1.59028e-015 7.95139e-016 1.59028e-015 1.4199 -1.8761 1.4221 -1.71639e-006 2.4709e-007 -2.36857e-006 1.1472 -3.4929 2.6336 -2.38542e-015 -7.95139e-016 -2.88238e-015 0.8229 -2.3 1.6571 -1.59028e-015 -1.59028e-015 -6.55989e-015 -9.412 3.9771 -0.7758 -46.6671 -41.1806 -9.15213 -0.7531 -40.938 7.10543e-015 173.813 67.5125 -176.153 0 -40.1986 -3.55271e-015 -7.05424 11.3859 -2.00272 0 -4.4182 9.239 -1.65634e-006 2.7893e-006 -2.09944e-006 9.4119 3.9773 -0.7758 46.7466 -41.178 9.24476 0.7532 -40.9383 -1.42109e-014 -173.817 67.5123 176.15 0 -40.1986 3.55271e-015 7.12593 11.3757 1.9492 0 -4.4182 9.239 8.27057e-007 1.89838e-007 -1.74838e-007 
0.00033524 -0.262062 -62.0971 -179.999 -89.9981 -179.999 0 8.7983 -4.7612 -0.0612927 8.2603 -0.109371 1.38778e-017 8.0291 0.4195 -0.108172 16.5207 -0.213084 0 9.9351 -2.2114 -0.108172 16.5208 -0.213084 1.11022e-016 22.3885 -0.4656 2.7573e-007 17.6113 1.11121e-006 -0.0001 12.643 3.4389 -1.83858e-009 8.51995 -2.05383e-007 2.2603 21.606 7.4023 0.533125 1.40696 -3.34498 13.5163 -1.1332 -5.0146 3.37438 33.6208 25.2692 -0.0995 -28.05 -0.2431 -32.337 -71.2847 -59.2569 0.0679 -23.3996 -0.1402 -6.37322 2.09447 -24.2407 0.7932 -9.069 2.5189 2.18663e-015 0 -7.25564e-015 -0.8272 -3.3923 0.5977 -7.95139e-016 0 -4.07509e-015 -0.5649 -2.3158 0.4082 -5.96354e-016 -1.59028e-015 -1.04362e-015 0.9159 -9.2044 0.2193 2.18663e-015 0 -7.25564e-015 0.0117 -4.1944 -0.0248 -0.0128414 0.00232729 9.38878e-005 0.0071 -2.3249 -0.0142 9.93923e-016 -1.59028e-015 -2.03754e-015 0.6113 -8.7231 -2.0637 2.18663e-015 0 -7.25564e-015 -0.1927 -3.8059 -0.2383 -0.0160487 0.00299298 0.000857877 -0.1091 -2.1688 -0.1362 -7.95139e-016 3.18055e-015 -3.47873e-015 -0.6151 -8.0947 -3.5641 2.18663e-015 0 -7.25564e-015 -0.4882 -2.341 -0.6462 -0.0125883 0.0031149 0.00283274 -0.3575 -1.7167 -0.4742 -1.59028e-015 -1.59028e-015 9.69075e-015 -1.42 -1.8761 1.4223 2.18663e-015 0 -7.25564e-015 -1.1471 -3.4929 2.6334 -7.95139e-016 0 -4.07509e-015 -0.823 -2.3 1.6571 -5.96354e-016 -1.59028e-015 -1.04362e-015 -2.2603 21.606 7.4023 -1.48528 1.75934 -2.29023 -13.5187 -1.1334 -5.0155 -6.51788 34.3771 -18.4299 0.0994 -28.0499 -0.2431 29.3882 -72.6071 55.774 -0.0679 -23.3996 -0.1402 6.03982 1.48472 24.5752 -0.7932 -9.0691 2.5189 -3.61535e-007 2.69242e-006 2.14916e-006 0.8272 -3.3923 0.5977 -5.37654e-006 -7.55601e-006 -2.5947e-006 0.565 -2.3158 0.4082 -2.54441e-006 3.05781e-006 -1.56432e-006 -0.916 -9.2044 0.2193 -3.61535e-007 2.69242e-006 2.14916e-006 -0.0117 -4.1944 -0.0248 0.0129452 0.00231258 -9.15859e-005 -0.0071 -2.3249 -0.0142 -3.14738e-006 -5.2773e-006 4.6566e-006 -0.6113 -8.7231 -2.0637 -3.61535e-007 2.69242e-006 2.14916e-006 0.1927 -3.8059 -0.2383 0.0163413 0.00303829 -0.000883737 0.1091 -2.1688 -0.1362 -2.17125e-007 8.28612e-007 5.84072e-006 0.6151 -8.0947 -3.564 -3.61535e-007 2.69242e-006 2.14916e-006 0.4882 -2.341 -0.6462 0.0145606 0.00367393 -0.00326077 0.3574 -1.7166 -0.4742 -4.03767e-006 -6.93732e-006 3.49444e-006 1.4199 -1.8761 1.4221 -3.61535e-007 2.69242e-006 2.14916e-006 1.1472 -3.4929 2.6336 -5.37654e-006 -7.55601e-006 -2.5947e-006 0.8229 -2.3 1.6571 -2.54441e-006 3.05781e-006 -1.56432e-006 -9.412 3.9771 -0.7758 -42.2559 -38.6465 -7.3887 -0.7531 -40.938 0 171.215 75.07 -173.471 7.10543e-015 -40.1986 -3.55271e-015 -6.27521 10.7479 -2.15843 0 -4.4182 9.239 -6.23214e-007 -5.84151e-007 1.42175e-007 9.4119 3.9773 -0.7758 42.557 -38.6379 7.75082 0.7532 -40.9383 0 -171.216 75.071 173.465 0 -40.1986 -3.55271e-015 6.55387 10.7094 1.96246 0 -4.4182 9.239 5.57289e-007 -5.67521e-007 -2.68345e-006 
